<?xml version="1.0" encoding="utf-8"?>
<!-- Generator: Adobe Illustrator 23.0.3, SVG Export Plug-In . SVG Version: 6.00 Build 0)  -->
<svg version="1.1" id="Layer_1" xmlns="http://www.w3.org/2000/svg" xmlns:xlink="http://www.w3.org/1999/xlink" x="0px" y="0px"
	 viewBox="0 0 1005.37 420.13" style="enable-background:new 0 0 1005.37 420.13;" xml:space="preserve">
<style type="text/css">
	.st0{fill:#FFFFFF;}
	.st1{fill:#FFFFFF;stroke:#FFFFFF;stroke-miterlimit:10;}
</style>
<path id="XMLID_374_" class="st0" d="M324.85,238.73c-68.61,10.19-140.26,15.42-205.97-6.81c-15.29-5.17-30.43-12.02-41.96-23.31
	c-11.53-11.29-18.98-27.72-16.2-43.62c3.75-21.48,20.91-37.5,37.65-49.9c47.16-34.93,102.79-58.42,160.42-70.31
	c17.77-3.67,35.85-5.99,54.01-6.29c9.52-0.16,19.17,0.26,28.3,2.97c9.13,2.72,17.77,7.94,23.11,15.82c1.86,2.75,3.34,6.16,2.36,9.33
	c-0.95,3.06-3.88,5-6.63,6.66c-3.95,2.37-8.03,4.72-12.54,5.63c-4.51,0.91-9.61,0.16-12.94-3.02c-0.96-0.91-1.78-2.1-1.79-3.42
	c-0.03-3.15,3.99-4.45,7.13-4.68c3.14-0.24,7.15-1.08,7.62-4.19c0.17-1.11-0.22-2.22-0.72-3.22c-3.11-6.13-10.33-8.84-17.02-10.41
	c-25.64-6.01-52.47-3.3-77.88,2.45c-18.73,4.24-37.02,10.2-55.22,16.27c-24.12,8.04-47.22,18.6-68.8,32.05
	c-19.71,12.28-39.94,24.34-50.91,45.7c-3.75,7.29-6.11,14.98-5.07,23.27c1.51,12,9.84,22.07,19.18,29.75
	c17.12,14.08,38.27,22.36,59.58,28.44C206.92,243.99,266.72,246.22,324.85,238.73z"/>
<path id="XMLID_373_" class="st0" d="M696.7,146.09c0.75,0.25-6.86,15.63-7.37,16.7c-3.39,7.13-7.68,14.28-9.88,21.85
	c-1.48,5.09-4.65,14.69,1.52,18.57c4.02,2.53,9.45,1.08,13.75-0.1c7.73-2.12,15.26-5.41,21.08-10.29c5.16-4.32,9.6-9.19,13.96-14.05
	c3.19-3.56,6-7.42,8.53-11.32c1.81-2.79,3.74-6.82,7.78-7.99c1.61-0.47,1.92,1.21,1.76,2.09c-1.02,5.61-3.84,10.83-5.72,16.24
	c-1.66,4.78-3.69,9.88-4.34,14.86c-0.73,5.62-0.7,11.43-1.04,17.09c-0.11,1.73-0.36,3.8,0.27,5.47c0.42,1.13,1.53,1.91,1.91,3.02
	c1.11,3.24-1.89,7.17-3.57,9.78c-1.83,2.83-4.08,7.11-8.89,6.27c-7.22-1.27-6.08-11.55-7.69-16.74c-3.42-11-14.96-2.39-20.41,1.72
	c-8.59,6.48-21.12,15.77-31.61,7.65c-3.96-3.06-3.47-8.68-2.87-12.72c1.32-8.96,4.53-17.66,7.86-26.23
	c3.99-10.28,8.98-20.27,14.26-30.13c2.24-4.18,5.34-7.95,8.3-11.8C694.92,145.18,695.89,145.82,696.7,146.09z"/>
<path id="XMLID_370_" class="st0" d="M558.66,38.24c-1.55,3.93-4.26,7.35-6.9,10.68c-37.06,46.69-71.72,95.5-100.89,147.62
	c-5.72,10.22-11.34,22.57-6.45,33.23c9.99,21.78,46.87,15.18,66.55,13.38c-20.92,18-67.83,31.67-81.03-2.54
	c-3.43-8.9,3.05-21.8,7.08-29.72c31.64-62.18,74.71-117.51,117.51-172.41c1.18-1.52,3.22-3.18,4.74-2.01
	C559.09,37.07,558.89,37.66,558.66,38.24z"/>
<path id="XMLID_369_" class="st0" d="M361.36,221.58c-0.59-0.27-1.22-0.99-1.67-1.34c-0.69-0.53-1.39-1.07-2.06-1.63
	c-2.78-2.34-4.41-5.13-4.3-8.85c0.11-3.85,2.21-7.22,4.29-10.32c2.19-3.26,4.57-6.39,7.13-9.36c1.6-1.86,4.45-4.08,3.38-6.96
	c-0.96-2.59-4.52-3.85-6.87-4.74c-2.76-1.05-5.87-2.54-8.91-2.15c-3.49,0.45-5.74,3.53-8.18,5.72c-7.63,6.87-15.1,13.91-22.63,20.89
	c-6.76,6.27-13.47,13.47-21.5,18.14c-0.25,0.15-1.32-4.34-1.32-4.76c-0.01-1.84,0.46-3.66,1.13-5.37c1.32-3.37,3.57-6.69,6.5-8.87
	c8.67-6.47,17.2-13.13,25.7-19.82c2.11-1.66,4.17-3.49,6.38-5.01c1.82-1.26,3.86-2.67,4.96-4.7c1.46-2.69,0.31-5.3-0.73-7.91
	c-0.9-2.24-1.83-4.46-2.74-6.7c-0.77-1.89-2.45-4.53-1.99-6.65c2.83,1.04,4.94,3.08,7,5.27c1.36,1.44,2.89,2.69,4.36,4.03
	c1.07,0.97,2.02,2.82,3.73,2.44c2.03-0.44,2.79-3.72,3.6-5.3c0.46-0.9,0.94-1.81,1.58-2.6c0.52-0.65,1.25-1.24,2.02-1.57
	c0.53,1.4,0.08,3.41-0.12,4.86c-0.34,2.41-0.88,5.62,0.54,7.81c2.2,3.37,7,1.26,10.2,1.51c2.32,0.18,4.83,0.35,7.04,1.14
	c7.79,2.81,3.05,13.14-0.04,17.72c-1.53,2.26-3.13,4.7-5.26,6.5c-2.13,1.79-4.69,3.06-6.54,5.19c-0.96,1.11-1.55,2.54-1.42,4.02
	c0.13,1.4,0.82,1.97,1.87,2.72c1.44,1.03,2.35,2.62,2.48,4.38c0.17,2.34-0.96,4.57-2.09,6.54c-0.66,1.16-1.31,2.48-2.17,3.57
	c-0.65,0.82-1.85,2.51-3.08,2.25C361.54,221.65,361.45,221.62,361.36,221.58z"/>
<path id="XMLID_366_" class="st0" d="M440.68,165.24c1.17-1.89,2.48-3.69,3.53-5.66c0.54-1.02,2.49-5.7,0.84-6.36
	c-0.28-0.11-0.61-0.03-0.89,0.08c-2.23,0.78-3.88,1.88-5.27,3.8c-1.77,2.44-3.7,4.75-5.57,7.15c-2.45,3.12-4.88,6.25-7.33,9.38
	c-5.9,7.54-11.79,15.07-18.12,22.24c-5.78,6.55-11.69,13.27-15.16,21.38c-2,4.69-3.86,9.96-2.55,15.08
	c0.03,0.14,0.09,0.29,0.22,0.34c0.11,0.04,0.22-0.01,0.33-0.05c4.43-2.02,6.83-6.97,9.53-10.75c7.57-10.57,15.91-20.55,23.59-31.03
	c2.63-3.58,5.19-7.22,7.65-10.92c0.05-0.08,0.1-0.15,0.15-0.23c0.59-0.88,1.16-1.78,1.72-2.68c0.02-0.03,0.04-0.06,0.06-0.09
	C435.82,173.02,438.27,169.14,440.68,165.24z"/>
<path id="XMLID_362_" class="st0" d="M507.65,167.33c0.02,0.02,0.04,0.04,0.06,0.07c0.19,0.22-3.56,5.05-3.9,5.54
	c-1.95,2.82-3.87,5.67-5.37,8.76c-1.75,3.6-4.76,7.09-4.9,11.26c-0.14,3.92,2.38,6.43,5.7,8.03c2.3,1.11,4.73,1.88,7.11,2.79
	c6.38,2.42-5.72,14.37-7.68,16.35c-2.25,2.27-7.54,4.08-9.99,2.93c-3.1-1.45-6.43-5.99-6.65-9.4c-0.91-13.88,5.14-25.64,13.59-36.21
	c1.79-2.24,3.71-4.38,5.65-6.51C502.91,169.14,505.18,164.51,507.65,167.33z"/>
<path id="XMLID_361_" class="st0" d="M529.24,138.54c0.63,1.98-1.26,4.03-2.48,5.83c-1.69,2.51-3.6,4.8-5.42,7.11
	c-1.5,1.89-3.37,4-5.31,3.57c-2.41-0.53-1.19-5.57-0.01-7.68c2.17-3.86,4.8-7.36,7.56-10.36c1.47-1.59,3.9-0.89,5.05,0.48
	C528.93,137.83,529.12,138.19,529.24,138.54z"/>
<path id="XMLID_359_" class="st0" d="M327.59,259.2c-2.07,0.57-4.12,1.57-6.22,1.63c-27.01,0.79-54.02,1.89-81.04,1.59
	c-23.21-0.26-46.42-1.27-69.54-3.33c-26.02-2.32-51.87-7.23-76.6-15.77c-0.63-0.22-1.25-0.43-1.88-0.66
	c-12.32-4.36-24.85-9.67-34.4-18.86c-6.34-6.1-12.43-16.12-12.43-25.24c0,1.21,2.81,4.1,3.53,5.14c1.05,1.53,2.11,3.05,3.2,4.55
	c13.23,18.09,33.88,29.07,55.16,34.75c25.7,6.87,52.1,11.25,78.64,13.04c13.48,0.91,27,1,40.5,1.41
	c27.07,0.82,54.33,1.46,81.37-0.26c3.48-0.22,6.96-0.67,10.45-0.5c3.02,0.15,6.5,0.21,9.28,1.53c0.47,0.22,0.62,0.44,0.46,0.66
	C327.91,259.1,327.75,259.21,327.59,259.2z"/>
<path id="XMLID_357_" class="st0" d="M465.28,127.42c0.02,0.07,0.02,0.14,0.03,0.22c0.01,0.37-0.19,0.72-0.38,1.04
	c-1.99,3.32-4.21,6.54-6.47,9.69c-1.26,1.75-2.43,3.58-3.97,5.1c-1.04,1.03-3.78,2.93-5.1,1.43c-1.7-1.93,0.69-4.64,1.97-6.05
	c2.98-3.27,5.64-6.83,8.31-10.36c0.73-0.97,1.56-2.06,2.84-2.28C463.4,126.05,465.05,126.38,465.28,127.42z"/>
<path id="XMLID_336_" class="st0" d="M354.46,101.91c-4.54-0.15-9.56-0.19-12.87,2c-3.31,2.19-2.59,7.42,1.92,7.98
	c1.06,0.13,2.12-0.02,3.16-0.16c48.31-6.84,96.62-13.68,144.94-20.52c31.98-4.53,64.01-9.06,96.49-11.64
	c27.68-2.2,55.62-2.98,83.53-3.76c91.85-2.56,183.87-5.12,276.03-1.32c14.47,0.6,32.19,0.04,38.22-9.49
	c-44.67-3.26-89.43-2.62-134.07-1.97c-104.44,1.51-209.21,3.03-312.01,14.13c-27.94,3.02-55.7,6.74-83.17,11.31
	c-37.32,6.22-65.95,14.26-104.6,13.38"/>
<path id="XMLID_318_" class="st0" d="M857.54,151.06c-3.68-3.97-8.68-6.46-13.52-8.75c-3.39-1.61-6.92-3-10.65-3.58
	c-4.49-0.7-9.08-0.76-13.6-0.32c-8.54,0.83-17.57,3.36-24.29,8.86c-10.3,8.44-15.61,20.58-19.39,33.01
	c-2.48,8.17-4.08,16.72-4.26,25.37c-0.15,7.28,2.01,15.37,6.3,20.93c7.33,9.49,19.25,6.82,28.86,4.37
	c9.43-2.4,18.93-5.85,26.38-13.07c7-6.79,12.42-15.83,14.73-25.94c0.17-0.76,0.18-1.83-0.49-2.06c-0.3-0.1-0.62,0.02-0.9,0.18
	c-3.31,1.8-5.97,7.65-8.68,10.54c-3.27,3.49-6.9,6.58-10.88,8.98c-7.83,4.72-16.88,6.49-25.52,3.71c-1.45-0.47-2.87-1.08-4.23-1.83
	c-5.28-2.9-9.88-8.47-10.05-15.36c-0.34-13.75,14.39-20.26,24.53-20.68c8.79-0.36,17.58-0.89,26.32-1.99
	c5-0.63,11.05-0.89,15.74-2.8c3.14-1.28,8.05-2.7,9.19-6.3c1.41-4.48-2.46-9.72-5.24-12.88
	C857.78,151.32,857.66,151.19,857.54,151.06z M845.12,160.5c-0.61,0.88-1.71,1.06-2.7,1.16c-6.38,0.69-12.78,1.15-19.19,1.37
	c-0.03,0-0.07,0-0.1,0c-6.11,0.21-12.22,0.2-18.33-0.01c-0.12,0.02-0.23,0.05-0.34,0.06c-0.69,0.1-1.59,0.35-2.26,0.04
	c-0.42-0.2-0.75-0.72-0.65-1.22c0.1-0.46,0.5-0.75,0.86-0.98c9.68-6.14,20.87-9.68,31.95-8.65c3.38,0.32,6.89,1.13,9.5,3.56
	c0.62,0.57,1.18,1.25,1.48,2.09C845.64,158.77,845.62,159.79,845.12,160.5z"/>
<path id="XMLID_317_" class="st0" d="M776.77,164.66c0,0.23-0.01,0.47,0.08,0.68c0.09,0.21,0.31,0.39,0.54,0.35"/>
<g id="XMLID_61_">
	<g id="XMLID_316_">
		<path class="st0" d="M649.38,181.67c-1.63,0.57-3.75,0.99-4.68,1.38c-2.29,0.97-4.55,2.08-6.63,3.52
			c-21.27,14.73-51.77,48.71-79.37,25.18c-8.38-7.15-11.88-18.91-7.15-29.48c9.21-20.59,32.96-29.83,53.03-25.1
			c9.06,2.14,17.59,6.23,26.11,10.16c1.46,0.67,2.98,1.35,4.57,1.29c1.59-0.06,3.26-1.09,3.59-2.75c0.31-1.53-0.56-3.02-1.45-4.27
			c-9.09-12.75-24.45-19.59-39.44-19.23c-22.4,0.53-45.22,16.08-55.2,37.47c-3.37,7.22-4.51,15.48-3.73,23.48
			c2.47,25.26,30.93,35.31,51.27,27.86c6.35-2.33,11.36-7.35,16.58-11.66c9.99-8.24,20.15-16.05,30.36-23.95
			c4.71-3.64,11.61-8.19,13.44-14.48C650.26,181.29,649.83,181.51,649.38,181.67z"/>
	</g>
	<g id="XMLID_72_">
		<g>
			<g>
				<path class="st0" d="M648.56,183.96l-12.25,11.28l-6.15,5.62c-2.08,1.84-4.21,3.62-6.31,5.44l-12.69,10.82
					c-4.29,3.54-8.69,6.94-13.03,10.42l-6.54,5.2c-2.17,1.75-4.45,3.35-6.67,5.02l-13.43,9.94c-4.51,3.27-9.15,6.36-13.73,9.54
					l-6.89,4.74l-1.73,1.18l-1.76,1.13l-3.52,2.26l-14.11,9.01c-1.17,0.76-2.36,1.5-3.56,2.2l-3.6,2.13l-7.21,4.26l-7.21,4.27
					l-1.81,1.06l-1.84,1l-3.68,2.01l-14.72,8.03c-1.22,0.68-2.46,1.32-3.72,1.94l-3.75,1.88l-7.49,3.77l-7.5,3.76
					c-2.5,1.27-5.07,2.37-7.6,3.56l-15.26,7c-5.13,2.24-10.32,4.35-15.48,6.52l-7.76,3.23c-2.6,1.04-5.23,2-7.85,3l-15.73,5.92
					l-15.93,5.39l-7.97,2.67l-8.06,2.41c-5.38,1.59-10.74,3.23-16.14,4.77l-16.29,4.24c-2.72,0.68-5.42,1.45-8.16,2.06l-8.22,1.83
					l-8.22,1.82l-4.11,0.91l-2.06,0.45l-2.18,0.42c-5.87,1.06-12.12,1.87-18.98,1.25c-3.42-0.33-7.02-1.06-10.59-2.52
					c-1.78-0.73-3.54-1.65-5.22-2.75c-0.85-0.52-1.63-1.19-2.43-1.8l-0.3-0.23c-0.03-0.02-0.32-0.27-0.58-0.52
					c-0.5-0.47-0.97-1-1.39-1.59c-0.85-1.15-1.49-2.5-1.86-3.89c-0.75-2.79-0.45-5.69,0.75-8.23c1.18-2.54,3.49-4.77,6.12-5.84
					c0.32-0.13,0.65-0.25,0.98-0.36c0.45-0.15,0.29-0.09,0.45-0.14l0.51-0.15l1.02-0.29l2.04-0.58c2.73-0.76,5.44-1.61,8.19-2.28
					l8.23-2.11l8.26-1.93c22.08-4.93,44.4-8.28,66.7-10.6c22.31-2.36,44.59-3.78,66.78-4.99c11.1-0.56,22.2-1.17,33.3-1.65
					c11.1-0.45,22.21-0.98,33.31-1.33c44.43-1.54,88.88-2.21,133.32-1.98c44.44,0.25,88.87,1.35,133.25,3.5
					c11.09,0.58,22.18,1.1,33.27,1.78l16.62,1.03l8.31,0.53l4.53,0.33l10.77,0.78c6.19,0.73,12.39,1.35,18.58,2.02
					c6.19,0.66,12.39,1.27,18.58,1.81c12.39,1.08,24.78,2.09,37.2,2.7c-6.41-0.32-12.82-0.59-19.24-0.79
					c-6.42-0.22-12.83-0.36-19.26-0.41c-12.84-0.13-25.69-0.07-38.55,0.3l-18.69-0.15c-21.86-0.11-43.7-0.18-65.55-0.08
					c-43.69,0.17-87.35,0.79-130.98,1.92c-43.64,1.14-87.25,2.77-130.83,4.94l-32.68,1.74l-32.66,1.93
					c-10.88,0.7-21.73,1.41-32.54,2.28c-10.81,0.88-21.59,1.89-32.32,3.09c-21.45,2.46-42.73,5.77-63.59,10.6
					c-2.62,0.56-5.2,1.26-7.8,1.89l-3.89,0.97l-3.86,1.06l-3.87,1.06l-0.97,0.26l-0.48,0.13c1.42,5.15-2.22-6.93-1.83-5.73
					c-0.01-0.03-0.02-0.06-0.04-0.1c-0.11-0.2-0.04-0.05,0.05-0.03c0.1,0.04,0.02,0-0.07,0.02c-0.05,0.01-0.06,0.02-0.01-0.01
					c0.03-0.02,0.04-0.03,0.11-0.09l3.95-4.53l0.11,0.08c0.31,0.21,0.56,0.48,0.89,0.68c0.34,0.19,0.62,0.43,0.98,0.6
					c2.72,1.53,6.81,2.21,11.37,2.08c2.28-0.05,4.67-0.29,7.12-0.65c1.23-0.18,2.46-0.38,3.72-0.61c1.27-0.24,2.63-0.53,3.94-0.8
					l15.87-3.24l3.97-0.81l3.94-0.94l7.88-1.89l7.88-1.88l3.94-0.94l3.91-1.07l15.64-4.28l3.91-1.07l3.87-1.2l7.75-2.4l7.75-2.39
					c1.29-0.4,2.59-0.78,3.87-1.21l3.83-1.32l15.34-5.29c1.28-0.45,2.57-0.86,3.83-1.34l3.79-1.45l7.59-2.89
					c40.53-15.28,79.63-34.41,117.27-56.19C578.38,236.11,614.15,211.02,648.56,183.96z"/>
			</g>
		</g>
	</g>
</g>
<g id="XMLID_63_">
	<path class="st1" d="M585.22,288.8c0-11.66,9.63-20.94,21.4-20.94c4.93,0,9.63,1.68,13.22,4.52c1.51,1.1,1.74,3.25,0.64,4.7
		c-1.1,1.39-3.25,1.68-4.7,0.52c-2.49-1.91-5.68-3.13-9.16-3.13c-4.18,0-7.83,1.57-10.44,4.23c-2.73,2.61-4.35,6.15-4.35,10.09
		c0,3.83,1.62,7.37,4.35,9.98c2.61,2.67,6.26,4.23,10.44,4.23c2.9,0,5.63-0.87,7.95-2.2v-7.95h-8.29c-1.8,0-3.31-1.51-3.31-3.31
		c0-1.86,1.51-3.25,3.31-3.25h11.43c0.06,0,0.06,0,0.06,0c0.06,0,0.06,0,0.06,0c1.86,0,3.36,1.39,3.36,3.25v12.82
		c0,0.41-0.12,0.64-0.17,0.99c-0.06,0.12-0.06,0.17-0.12,0.29v0.06c-0.17,0.52-0.52,0.99-1.1,1.39c-3.65,2.84-8.24,4.52-13.17,4.52
		C594.85,309.62,585.22,300.4,585.22,288.8z"/>
	<path class="st1" d="M653.84,300.05h-14.09l-2.84,7.54c-0.52,1.28-1.74,2.03-3.02,2.03c-0.41,0-0.75-0.06-1.1-0.17
		c-1.68-0.64-2.49-2.49-1.91-4.18l12.82-34.16c0.52-1.28,1.8-2.09,3.07-2.03c1.33-0.06,2.55,0.75,3.07,2.03l12.82,34.16
		c0.58,1.68-0.23,3.54-1.91,4.18c-0.29,0.12-0.7,0.17-1.1,0.17c-1.28,0-2.49-0.75-2.96-2.03L653.84,300.05z M651.46,293.67
		l-4.7-12.47l-4.7,12.47H651.46z"/>
	<path class="st1" d="M704.41,272.21v34.22c0,1.74-1.51,3.19-3.25,3.19c-1.8,0-3.19-1.45-3.19-3.19v-24.42l-8.35,11.6
		c-0.64,0.87-1.57,1.33-2.61,1.33h-0.06h-0.06c-1.04,0-2.03-0.46-2.67-1.33l-8.29-11.6v24.42c0,1.74-1.45,3.19-3.25,3.19
		c-1.74,0-3.19-1.45-3.19-3.19v-34.22c0-1.74,1.45-3.19,3.19-3.19c0.06,0,0.06,0,0.17,0c0.93,0,1.97,0.46,2.55,1.33l11.54,16.01
		l11.54-16.01c0.64-0.87,1.57-1.33,2.61-1.33c0,0,0,0,0.06,0C702.9,269.08,704.41,270.47,704.41,272.21z"/>
	<path class="st1" d="M717.75,272.21c0-1.8,1.39-3.19,3.19-3.19c1.74,0,3.25,1.39,3.25,3.19v34.22c0,1.8-1.51,3.19-3.25,3.19
		c-1.8,0-3.19-1.39-3.19-3.19V272.21z"/>
	<path class="st1" d="M740.31,306.43c0,1.74-1.45,3.19-3.13,3.19c-1.8,0-3.19-1.45-3.19-3.19v-33.7c0,0,0,0,0-0.06
		c-0.06-0.99,0.41-2.03,1.28-2.67c1.45-0.99,3.42-0.7,4.41,0.7l18.73,25.92v-23.89c0-1.68,1.39-3.13,3.13-3.13
		c1.74,0,3.19,1.45,3.19,3.13v33.7c0,1.74-1.45,3.19-3.19,3.19c-0.93,0-1.8-0.46-2.38-1.16c-0.12-0.12-0.23-0.23-0.29-0.35
		l-18.56-25.75V306.43z"/>
	<path class="st1" d="M772.85,288.8c0-11.66,9.63-20.94,21.4-20.94c4.93,0,9.63,1.68,13.22,4.52c1.51,1.1,1.74,3.25,0.64,4.7
		c-1.1,1.39-3.25,1.68-4.7,0.52c-2.49-1.91-5.68-3.13-9.16-3.13c-4.18,0-7.83,1.57-10.44,4.23c-2.73,2.61-4.35,6.15-4.35,10.09
		c0,3.83,1.62,7.37,4.35,9.98c2.61,2.67,6.26,4.23,10.44,4.23c2.9,0,5.63-0.87,7.95-2.2v-7.95h-8.29c-1.8,0-3.31-1.51-3.31-3.31
		c0-1.86,1.51-3.25,3.31-3.25h11.43c0.06,0,0.06,0,0.06,0c0.06,0,0.06,0,0.06,0c1.86,0,3.36,1.39,3.36,3.25v12.82
		c0,0.41-0.12,0.64-0.17,0.99c-0.06,0.12-0.06,0.17-0.12,0.29v0.06c-0.17,0.52-0.52,0.99-1.1,1.39c-3.65,2.84-8.24,4.52-13.17,4.52
		C782.48,309.62,772.85,300.4,772.85,288.8z"/>
</g>
</svg>
