<?xml version="1.0" encoding="utf-8"?>
<!-- Generator: Adobe Illustrator 19.2.1, SVG Export Plug-In . SVG Version: 6.00 Build 0)  -->
<svg version="1.1" id="Layer_1" xmlns="http://www.w3.org/2000/svg" xmlns:xlink="http://www.w3.org/1999/xlink" x="0px" y="0px"
	 viewBox="0 0 1005.4 420.1" style="enable-background:new 0 0 1005.4 420.1;" xml:space="preserve">
<style type="text/css">
	.st0{fill:#FFFFFF;}
	.st1{fill:none;}
</style>
<title>critique_logo_white</title>
<path id="_Path_" class="st0" d="M324.9,238.7c-68.6,10.2-140.3,15.4-206-6.8c-15.3-5.2-30.4-12-42-23.3S58,180.9,60.7,165
	c3.7-21.5,20.9-37.5,37.7-49.9c47.2-34.9,102.8-58.4,160.4-70.3c17.8-3.8,35.8-5.9,54-6.3c9.5-0.2,19.2,0.3,28.3,3
	s17.8,7.9,23.1,15.8c1.9,2.8,3.3,6.2,2.4,9.3c-1,3.2-3.9,5-6.6,6.7c-4,2.4-8,4.7-12.5,5.6s-9.6,0.2-12.9-3c-1-0.9-1.7-2.1-1.8-3.4
	c0-3.2,4-4.4,7.1-4.7s7.1-1.1,7.6-4.2c0.1-1.1-0.2-2.2-0.7-3.2c-3.1-6.1-10.3-8.8-17-10.4c-25.6-6-52.5-3.3-77.9,2.5
	c-18.7,4.2-37,10.2-55.2,16.3c-24.1,7.9-47.2,18.7-68.8,32c-19.7,12.3-39.9,24.3-50.9,45.7c-3.8,7.3-6.1,15-5.1,23.3
	c1.5,12,9.8,22.1,19.2,29.8c17.1,14.1,38.3,22.4,59.6,28.4C206.9,244,266.7,246.2,324.9,238.7z"/>
<path id="_Path_2" class="st0" d="M696.7,146.1c0.8,0.2-6.9,15.6-7.4,16.7c-3.4,7.1-7.7,14.3-9.9,21.9c-1.5,5.1-4.7,14.7,1.5,18.6
	c4,2.5,9.5,1.1,13.8-0.1c7.7-2.1,15.3-5.4,21.1-10.3c5-4.3,9.7-9,14-14.1c3.1-3.5,6-7.3,8.5-11.3c1.8-2.8,3.7-6.8,7.8-8
	c1.6-0.5,1.9,1.2,1.8,2.1c-1,5.6-3.8,10.8-5.7,16.2c-1.7,4.8-3.7,9.9-4.3,14.9c-0.7,5.6-0.7,11.4-1,17.1c-0.1,1.7-0.4,3.8,0.3,5.5
	c0.4,1.1,1.5,1.9,1.9,3c1.1,3.2-1.9,7.2-3.6,9.8c-1.8,2.8-4.1,7.1-8.9,6.3c-7.2-1.3-6.1-11.6-7.7-16.7c-3.4-11-15-2.4-20.4,1.7
	c-8.6,6.5-21.1,15.8-31.6,7.6c-4-3.1-3.5-8.7-2.9-12.7c1.3-9,4.5-17.7,7.9-26.2c4.1-10.3,8.9-20.4,14.2-30.1c2.2-4.2,5.3-8,8.3-11.8
	C694.9,145.2,695.9,145.8,696.7,146.1z"/>
<path id="_Path_3" class="st0" d="M558.7,38.2c-1.5,3.9-4.3,7.3-6.9,10.7c-37.1,46.7-71.8,95.5-100.9,147.6
	c-5.7,10.2-11.3,22.6-6.5,33.2c10,21.8,46.9,15.2,66.5,13.4c-20.9,18-67.8,31.7-81-2.5c-3.4-8.9,3-21.8,7.1-29.7
	c31.6-62.2,74.7-117.5,117.5-172.4c1.2-1.5,3.2-3.2,4.7-2C559.1,37.1,558.9,37.7,558.7,38.2z"/>
<path id="_Path_4" class="st0" d="M361.4,221.6c-0.6-0.4-1.2-0.8-1.7-1.3c-0.7-0.5-1.4-1.1-2.1-1.6c-2.8-2.3-4.4-5.1-4.3-8.9
	s2.2-7.2,4.3-10.3c2.2-3.3,4.6-6.4,7.1-9.4c1.6-1.9,4.5-4.1,3.4-7c-1-2.6-4.5-3.9-6.9-4.7c-2.8-1-5.9-2.5-8.9-2.1
	c-3.5,0.4-5.7,3.5-8.2,5.7c-7.6,6.9-15.1,13.9-22.6,20.9c-6.8,6.3-13.5,13.5-21.5,18.1c-0.2,0.1-1.3-4.3-1.3-4.8
	c0-1.8,0.4-3.7,1.1-5.4c1.3-3.5,3.6-6.6,6.5-8.9c8.7-6.5,17.2-13.1,25.7-19.8c2.1-1.7,4.2-3.5,6.4-5c1.8-1.3,3.9-2.7,5-4.7
	c1.5-2.7,0.3-5.3-0.7-7.9c-0.9-2.2-1.8-4.5-2.7-6.7c-0.8-1.9-2.5-4.5-2-6.6c2.8,1,4.9,3.1,7,5.3c1.4,1.4,2.9,2.7,4.4,4
	c1.1,1,2,2.8,3.7,2.4c2-0.4,2.8-3.7,3.6-5.3c0.4-0.9,1-1.8,1.6-2.6c0.5-0.7,1.2-1.2,2-1.6c0.5,1.4,0.1,3.4-0.1,4.9
	c-0.3,2.4-0.9,5.6,0.5,7.8c2.2,3.4,7,1.3,10.2,1.5c2.4,0.1,4.7,0.5,7,1.1c7.8,2.8,3,13.1,0,17.7c-1.4,2.4-3.2,4.6-5.3,6.5
	c-2.1,1.8-4.7,3.1-6.5,5.2c-1,1.1-1.5,2.5-1.4,4c0.1,1.2,0.8,2.2,1.9,2.7c1.4,1,2.3,2.6,2.5,4.4c0.2,2.3-1,4.6-2.1,6.5
	c-0.6,1.2-1.4,2.4-2.2,3.6c-0.6,0.8-1.9,2.5-3.1,2.2C361.5,221.6,361.5,221.6,361.4,221.6z"/>
<path id="_Path_5" class="st0" d="M440.7,165.2c1.2-1.9,2.5-3.7,3.5-5.7c0.5-1,2.5-5.7,0.8-6.4c-0.3-0.1-0.6-0.1-0.9,0.1
	c-2.1,0.7-4,2-5.3,3.8c-1.8,2.4-3.7,4.8-5.6,7.1l-7.3,9.4c-5.9,7.5-11.8,15.1-18.1,22.2c-5.8,6.6-11.7,13.3-15.2,21.4
	c-2,4.7-3.9,10-2.5,15.1c0,0.1,0.1,0.3,0.2,0.3c0.1,0,0.2,0,0.3-0.1c4.4-2,6.8-7,9.5-10.8c7.6-10.6,15.9-20.6,23.6-31
	c2.6-3.6,5.2-7.2,7.6-10.9l0.1-0.2c0.6-0.9,1.2-1.8,1.7-2.7l0.1-0.1C435.8,173,438.3,169.1,440.7,165.2z"/>
<path id="_Path_6" class="st0" d="M507.6,167.3L507.6,167.3c0.2,0.3-3.5,5.1-3.8,5.6c-2,2.8-3.8,5.7-5.4,8.8
	c-1.8,3.6-4.8,7.1-4.9,11.3c-0.1,3.9,2.4,6.4,5.7,8c2.3,1.1,4.7,1.9,7.1,2.8c6.4,2.4-5.7,14.4-7.7,16.4c-2.2,2.3-7.5,4.1-10,2.9
	c-3.1-1.4-6.4-6-6.6-9.4c-0.9-13.9,5.1-25.6,13.6-36.2c1.8-2.2,3.7-4.4,5.6-6.5C502.9,169.1,505.2,164.5,507.6,167.3z"/>
<path id="_Path_7" class="st0" d="M529.2,138.5c0.6,2-1.3,4-2.5,5.8c-1.7,2.5-3.6,4.8-5.4,7.1c-1.5,1.9-3.4,4-5.3,3.6
	c-2.4-0.5-1.2-5.6,0-7.7c2.1-3.7,4.6-7.2,7.5-10.4c1.5-1.6,3.9-0.9,5,0.5C528.9,137.8,529.1,138.1,529.2,138.5z"/>
<path id="_Path_8" class="st0" d="M327.6,259.2c-2.1,0.6-4.1,1.6-6.2,1.6c-27,0.8-54,1.9-81,1.6c-23.2-0.3-46.4-1.3-69.5-3.3
	c-26-2.3-51.9-7.2-76.6-15.8l-1.9-0.7c-12.3-4.4-24.9-9.7-34.4-18.9c-6.3-6.1-12.4-16.1-12.4-25.2c0,1.2,2.8,4.1,3.5,5.1
	c1,1.5,2.1,3.1,3.2,4.6c13.2,18.1,33.9,29.1,55.2,34.8c25.7,6.9,52.1,11.2,78.6,13c13.5,0.9,27,1,40.5,1.4
	c27.1,0.8,54.3,1.5,81.4-0.3c3.5-0.4,7-0.5,10.5-0.5c3,0.1,6.5,0.2,9.3,1.5c0.5,0.2,0.6,0.4,0.5,0.7
	C328,259,327.8,259.2,327.6,259.2z"/>
<path id="_Path_9" class="st0" d="M465.3,127.4c0,0.1,0,0.1,0,0.2c0,0.4-0.2,0.7-0.4,1c-2,3.3-4.2,6.5-6.5,9.7
	c-1.2,1.8-2.5,3.5-4,5.1c-1,1-3.8,2.9-5.1,1.4c-1.7-1.9,0.7-4.6,2-6.1c3-3.3,5.6-6.8,8.3-10.4c0.7-1,1.6-2.1,2.8-2.3
	C463.4,126.1,465,126.4,465.3,127.4z"/>
<path id="_Path_13" class="st0" d="M354.5,101.9c-4.5-0.2-9.6-0.2-12.9,2c-2,1.2-2.7,3.9-1.5,5.9c0.7,1.2,2,2,3.4,2.1
	c1.1,0.1,2.1,0,3.2-0.2l144.9-20.5c32-4.5,64-9.1,96.5-11.6c27.7-2.2,55.6-3,83.5-3.8c91.8-2.6,183.9-5.1,276-1.3
	c14.5,0.6,32.2,0,38.2-9.5c-44.7-3.3-89.4-2.6-134.1-2c-104.4,1.5-209.2,3-312,14.1c-27.9,3-55.7,6.8-83.2,11.3
	c-37.3,6.3-74.6,14.1-113.3,13.2"/>
<path id="_Path_14" class="st1" d="M607,211.5c1.6-0.7,3.3-1.1,5-1.3"/>
<path id="_Path_15" class="st1" d="M612.4,208.8c-3.3,1.8-6.2,4.1-9.8,5.6"/>
<path id="_Compound_Path_" class="st0" d="M857.5,151.1c-3.7-4-8.7-6.5-13.5-8.8c-3.4-1.7-6.9-2.9-10.7-3.6
	c-4.5-0.7-9.1-0.8-13.6-0.3c-8.5,0.8-17.6,3.4-24.3,8.9c-10.3,8.4-15.6,20.6-19.4,33c-2.6,8.2-4,16.8-4.3,25.4
	c-0.2,7.3,2,15.4,6.3,20.9c7.3,9.5,19.2,6.8,28.9,4.4c9.4-2.4,18.9-5.9,26.4-13.1c7.3-7.1,12.4-16.1,14.7-25.9
	c0.2-0.8,0.2-1.8-0.5-2.1c-0.3-0.1-0.6,0-0.9,0.2c-3.3,1.8-6,7.6-8.7,10.5c-3.2,3.5-6.9,6.5-10.9,9c-7.8,4.7-16.9,6.5-25.5,3.7
	c-1.5-0.5-2.9-1.1-4.2-1.8c-5.3-2.9-9.9-8.5-10-15.4c-0.3-13.8,14.4-20.3,24.5-20.7c8.8-0.4,17.6-0.9,26.3-2c5-0.6,11-0.9,15.7-2.8
	c3.1-1.3,8-2.7,9.2-6.3c1.4-4.5-2.5-9.7-5.2-12.9L857.5,151.1z M845.1,160.5c-0.7,0.8-1.7,1.2-2.7,1.2c-6.4,0.7-12.8,1.1-19.2,1.4
	h-0.1c-6.1,0.2-12.2,0.2-18.3,0l-0.3,0.1c-0.7,0.2-1.5,0.2-2.3,0c-0.5-0.2-0.7-0.7-0.7-1.2c0.1-0.4,0.4-0.8,0.9-1
	c9.7-6.1,20.9-9.7,32-8.6c3.4,0.3,6.9,1.1,9.5,3.6c0.7,0.6,1.2,1.3,1.5,2.1C845.7,158.7,845.6,159.7,845.1,160.5L845.1,160.5z"/>
<path id="_Path_16" class="st1" d="M776.8,164.7c0,0.2,0,0.5,0.1,0.7c0.1,0.2,0.3,0.4,0.5,0.4"/>
<g id="_Group_">
	<g id="_Group_2">
		<path class="st0" d="M649.4,181.7c-1.6,0.6-3.8,1-4.7,1.4c-2.3,0.9-4.5,2.1-6.6,3.5c-21.3,14.7-51.8,48.7-79.4,25.2
			c-8.4-7.1-11.9-18.9-7.2-29.5c9.2-20.6,33-29.8,53-25.1c9.1,2.1,17.6,6.2,26.1,10.2c1.4,0.8,3,1.2,4.6,1.3c1.7,0,3.1-1.1,3.6-2.8
			c0.3-1.5-0.6-3-1.5-4.3c-9-12.7-24.4-19.6-39.4-19.2c-22.4,0.5-45.2,16.1-55.2,37.5c-3.3,7.4-4.6,15.5-3.8,23.5
			c2.5,25.3,30.9,35.3,51.3,27.9c6.3-2.3,11.4-7.4,16.6-11.7c10-8.2,20.2-16,30.4-23.9c4.7-3.6,11.6-8.2,13.4-14.5
			C650.3,181.3,649.8,181.5,649.4,181.7z"/>
	</g>
	<g id="_Group_3">
		<path class="st0" d="M650.7,183c-20.4,19.3-41.9,37.4-64.4,54.3l-8.5,6.3c-2.8,2.1-5.6,4.2-8.5,6.2l-17.4,12
			c-5.9,3.9-11.8,7.6-17.8,11.4l-4.5,2.8l-4.5,2.7L516,284c-24.4,14.3-49.6,27.1-75.4,38.6c-25.9,11.3-52.5,21.1-79.6,29.3
			c-13.5,4.2-27.3,7.7-41,11.1l-20.8,4.6c-3.8,0.8-7.5,1.4-11.4,1.7c-4.2,0.4-8.4,0.3-12.6-0.3c-4.8-0.7-9.3-2.4-13.4-4.9
			c-1-0.7-2.1-1.5-3-2.3s-1.9-1.7-2.7-2.7l-1.3-1.5l-0.6-0.7l-0.1-0.2c9.4-27.7,2.7-7.7,4.9-13.9l0.3-0.1l2.5-0.7
			c3.4-1,6.9-2.1,10.3-3s6.9-1.9,10.4-2.7c13.9-3.4,27.9-6.2,42-8.4c28.1-4.4,56.4-6.7,84.4-8.5c14-0.9,28-1.5,42.1-2.2l21-0.9
			l10.5-0.4l10.5-0.4l0,0c8.3-0.3,16.6-0.6,24.9-0.8l25-0.6l25-0.4c8.3-0.1,16.6-0.1,25-0.2s16.6,0,25,0s16.6,0,25,0.2l24.9,0.4
			l24.9,0.6c16.6,0.5,33.2,1,49.8,1.7l12.4,0.5l12.5,0.6c8.3,0.5,16.6,0.8,24.9,1.4l24.9,1.6l6.8,0.5l8,0.6c6.2,0.7,12.4,1.3,18.6,2
			s12.4,1.3,18.6,1.8c12.4,1.1,24.8,2.1,37.2,2.7c-6.4-0.3-12.8-0.6-19.2-0.8s-12.8-0.3-19.3-0.4c-6.4-0.1-12.8-0.1-19.3,0
			s-12.8,0.2-19.3,0.3l-7.7-0.1h-4.9l-12,0l-23.9-0.1h-23.9l-23.9,0.1c-8,0-16,0.1-23.9,0.2s-16,0.1-23.9,0.3l-23.9,0.4l-23.9,0.5
			c-15.9,0.4-31.9,0.7-47.8,1.3s-31.9,1.1-47.8,1.6s-31.8,1.3-47.8,2.1l0,0l-10.5,0.5l-10.5,0.6l-21,1c-13.9,0.9-27.9,1.6-41.8,2.5
			c-27.8,1.8-55.5,4.1-82.7,8.3c-13.6,2.1-27.1,4.6-40.5,7.8c-3.4,0.8-6.6,1.6-10,2.5s-6.6,1.8-9.9,2.7l-2.5,0.7l-0.3,0.1
			c2.1-6.2-4.9,13.9,4.6-13.8l0.1,0.1l0.2,0.3l0.5,0.6c0.3,0.4,0.7,0.7,1,1l1.1,0.9c1.9,1.2,4,2,6.2,2.3c2.8,0.4,5.6,0.5,8.4,0.3
			c3.2-0.2,6.3-0.7,9.4-1.3l20.3-4.2c13.5-3.1,27-6.2,40.3-10c26.7-7.5,53-16.3,78.8-26.5c25.8-10.4,51-22.1,75.6-35l9.2-4.9
			l4.6-2.5l4.5-2.6c6-3.5,12.1-6.8,18.1-10.4l17.9-10.9c3-1.8,5.9-3.8,8.8-5.6l8.8-5.7C606.1,216.8,628.7,200.3,650.7,183z"/>
	</g>
</g>
<g id="_Group_4">
	<path class="st0" d="M605.1,309.5c-11.2,0-20.3-9.1-20.3-20.2c0-11.2,9.1-20.3,20.2-20.3c4.5,0,8.8,1.5,12.4,4.2
		c0.7,0.5,1.2,1.3,1.3,2.2c0.1,0.9-0.1,1.8-0.7,2.5c-1.1,1.5-3.2,1.7-4.7,0.6c-5.9-4.6-14.4-3.4-19,2.5c-4.6,5.9-3.4,14.4,2.5,19
		c5.2,4,12.5,3.7,17.4-0.7l0.2-0.2v-7.4h-11c-1.8,0-3.4-1.5-3.4-3.3c0-0.9,0.3-1.8,1-2.4c0.6-0.7,1.5-1,2.4-1h14.4
		c1.9,0,3.4,1.5,3.4,3.4l-0.1,18c0,1.8-1.5,3.3-3.3,3.3l0,0c-0.7,0-1.4-0.3-2-0.7c-0.6-0.4-1-1-1.2-1.7
		C611.7,308.8,608.4,309.5,605.1,309.5z"/>
	<path class="st0" d="M629,309.4c-1.7-0.7-2.5-2.7-1.8-4.4l3.6-8.6l0,0l10.4-25.1c0-0.1,0.1-0.2,0.1-0.3l0.1-0.1l0.1-0.1
		c0-0.1,0-0.1,0.1-0.1l0.1-0.1c0,0,0-0.1,0.1-0.1c0,0,0.1-0.1,0.1-0.1l0.1-0.2c0,0,0.1-0.1,0.1-0.1c0,0,0.1-0.1,0.1-0.1l0.1-0.1
		l0.1-0.1l0.2-0.1l0.2-0.1l0.1-0.1l0.1-0.1l0.2-0.1l0.2-0.1h0.1h0.2h0.1h0.7h0.2h0.1c0.1,0,0.1,0,0.2,0.1h0.1
		c0.2,0.1,0.4,0.1,0.6,0.2l0.2,0.1l0.2,0.1l0.1,0.1l0.1,0.1c0,0,0.1,0,0.1,0.1c0,0,0.1,0.1,0.1,0.1c0,0,0,0.1,0.1,0.1
		c0,0,0.1,0.1,0.1,0.1l0.1,0.1c0,0,0.1,0.1,0.1,0.1c0,0.1,0,0.1,0.1,0.1s0.1,0.1,0.1,0.1c0.1,0.1,0.1,0.2,0.1,0.3l10.4,25.1l0,0
		l3.6,8.6c0.7,1.7-0.1,3.7-1.8,4.4c-0.4,0.2-0.8,0.3-1.3,0.3c-1.4,0.1-2.6-0.8-3.1-2.1l-2.7-6.5h-16.4l-2.7,6.6
		c-0.5,1.3-1.7,2.1-3.1,2.1h-0.7L629,309.4z M649.7,294.4l-5.5-13.1l-5.4,13.1H649.7L649.7,294.4z"/>
	<path class="st0" d="M705.5,269c0.7,0.2,1.3,0.6,1.8,1.2c0.4,0.6,0.7,1.3,0.7,2v34c0,0.9-0.4,1.7-1,2.4c-1.3,1.3-3.4,1.3-4.7,0
		c0,0,0,0,0,0c-0.6-0.6-1-1.5-1-2.4v-22l-10.6,17.5l0,0l0,0l0,0l0,0l-0.1,0.2l-0.1,0.1l-0.1,0.1l-0.1,0.1l-0.1,0.1l-0.2,0.1
		l-0.1,0.1l-0.2,0.1l0,0l0,0l0,0c-0.1,0-0.1,0.1-0.2,0.1c-0.1,0-0.1,0.1-0.1,0.1l-0.2,0.1c-0.4,0.2-0.9,0.3-1.4,0.2h-0.1h-0.1
		c-0.3,0-0.5-0.1-0.7-0.1h-0.1h-0.1l-0.2-0.1c0,0,0,0-0.1-0.1l-0.2-0.1l0,0l0,0l0,0c-0.1,0-0.1-0.1-0.2-0.1c0,0,0,0-0.1-0.1
		l-0.2-0.1l-0.1-0.1l-0.1-0.1c0-0.1-0.1-0.1-0.1-0.1c0,0,0-0.1-0.1-0.1c-0.1-0.1-0.1-0.1-0.1-0.2l0,0l0,0l0,0l0,0l-10.5-17.5v22
		c0,0.9-0.3,1.7-1,2.4c-0.6,0.6-1.5,1-2.4,1c-1.8,0-3.3-1.5-3.3-3.3v-34c0-0.7,0.2-1.4,0.7-2c0.4-0.6,1.1-1,1.8-1.2
		c1.5-0.4,3,0.2,3.8,1.5l13.9,23l13.9-23c0.4-0.6,0.9-1.1,1.6-1.4l1-0.4L705.5,269z"/>
	<path class="st0" d="M720.8,309.6c-1.8,0-3.3-1.5-3.3-3.3v-33.8c0-1.8,1.5-3.3,3.3-3.3c1.8,0,3.3,1.5,3.3,3.3v33.8
		C724.1,308.1,722.6,309.6,720.8,309.6z"/>
	<path class="st0" d="M760,308.4L760,308.4L760,308.4l-20.4-26.2v24.2c0,1.8-1.5,3.3-3.3,3.3c-1.8,0-3.3-1.5-3.3-3.3v-34
		c0-0.7,0.2-1.4,0.6-1.9c0.4-0.6,1-1,1.6-1.2c0.6-0.2,1.3-0.3,2-0.1c0.7,0.2,1.3,0.6,1.7,1.2l20.4,26.2v-24.2c0-0.9,0.4-1.7,1-2.4
		c0.6-0.6,1.5-1,2.4-1c1.8,0,3.3,1.5,3.3,3.3v34c0,0.1,0,0.1,0,0.2v0.1c0,0.1,0,0.1,0,0.2c0,0.1,0,0.1,0,0.2v0.1
		c0,0.1,0,0.1-0.1,0.2c0,0,0,0.1-0.1,0.1c0,0.1,0,0.1-0.1,0.2l-0.1,0.1l-0.1,0.1l-0.1,0.2l-0.1,0.1c0,0.1-0.1,0.1-0.1,0.2l-0.1,0.1
		l-0.1,0.1c-0.1,0.1-0.2,0.2-0.2,0.2c0,0-0.1,0.1-0.1,0.1l0,0l0,0c-0.1,0.1-0.3,0.2-0.4,0.3l0,0l-0.5,0.2h-0.1
		c-0.2,0.1-0.3,0.1-0.5,0.1h-0.1h-0.5h-0.4c0,0,0,0-0.1,0l-0.3-0.1c0,0,0,0-0.1,0l-0.2-0.1l-0.1-0.1c-0.1,0-0.2,0-0.2-0.1
		c0,0-0.1,0-0.1-0.1l-0.2-0.1L761,309l-0.2-0.1l-0.1-0.1l-0.2-0.2l0,0l0,0l-0.1-0.1L760,308.4z"/>
	<path class="st0" d="M793.3,309.5c-11.2,0-20.3-9.1-20.3-20.2c0-11.2,9.1-20.3,20.2-20.3c4.5,0,8.8,1.5,12.4,4.2
		c0.7,0.5,1.2,1.3,1.3,2.2c0.1,0.9-0.1,1.8-0.7,2.5c-1.1,1.5-3.2,1.7-4.7,0.6c-5.9-4.6-14.4-3.4-19,2.5c-4.6,5.9-3.4,14.4,2.5,19
		c5.2,4,12.5,3.7,17.4-0.7l0.2-0.2v-7.4h-11.1c-1.8,0-3.4-1.5-3.4-3.3c0-0.9,0.3-1.8,1-2.4c0.6-0.7,1.5-1,2.4-1H806
		c1.9,0,3.4,1.5,3.4,3.4l-0.1,18c0,1.8-1.5,3.3-3.3,3.3l0,0c-0.7,0-1.4-0.3-2-0.7c-0.6-0.4-1-1-1.2-1.7
		C799.9,308.7,796.6,309.5,793.3,309.5z"/>
</g>
</svg>
