<?xml version="1.0" encoding="utf-8"?>
<!-- Generator: Adobe Illustrator 23.0.2, SVG Export Plug-In . SVG Version: 6.00 Build 0)  -->
<svg version="1.1" id="Layer_3" xmlns="http://www.w3.org/2000/svg" xmlns:xlink="http://www.w3.org/1999/xlink" x="0px" y="0px"
	 viewBox="0 0 130 72.8" style="enable-background:new 0 0 130 72.8;" xml:space="preserve">
<style type="text/css">
	.st0{fill:#FFFFFF;}
</style>
<g>
	<path class="st0" d="M0.4,54.5c0,0,0,0.7,0.7,0.7h1.4c0,0,0.7,0,0.7-0.7v-7.4c0,0,0-0.7,0.3-0.1l2.6,4.5c0,0,0.4,0.6,0.7,0L9.5,47
		c0,0,0.3-0.6,0.3,0.1v7.4c0,0,0,0.7,0.7,0.7H12c0,0,0.7,0,0.7-0.7V42.1c0,0,0-0.7-0.7-0.7h-1.7c0,0-0.7,0-1,0.6l-2.4,4.4
		c0,0-0.3,0.6-0.7,0L3.8,42c0,0-0.3-0.6-1-0.6H1.1c0,0-0.7,0-0.7,0.7C0.4,42.1,0.4,54.5,0.4,54.5z M16.4,54.5c0,0,0,0.7,0.7,0.7h1.5
		c0,0,0.7,0,0.7-0.7V42.1c0,0,0-0.7-0.7-0.7h-1.5c0,0-0.7,0-0.7,0.7V54.5z M30.5,41.4c0,0-0.7,0-1,0.6l-1.8,3.3c0,0-0.3,0.6-0.7,0
		L25.3,42c0,0-0.3-0.6-1-0.6h-1.9c0,0-0.7,0-0.4,0.6l3.3,5.6c0,0,0.4,0.6,0,1.2l-3.4,5.8c0,0-0.4,0.6,0.3,0.6H24c0,0,0.7,0,1-0.6
		l1.9-3.5c0,0,0.3-0.6,0.7,0l1.9,3.5c0,0,0.3,0.6,1,0.6h1.9c0,0,0.7,0,0.3-0.6l-3.5-5.9c0,0-0.4-0.6,0-1.2l3.3-5.5
		c0,0,0.4-0.6-0.3-0.6C32.2,41.4,30.5,41.4,30.5,41.4z M37.6,54.5c0,0,0,0.7,0.7,0.7h1.5c0,0,0.7,0,0.7-0.7v-9.8c0,0,0-0.7,0.7-0.7
		h2.5c0,0,0.4,0,0.4-0.3v-1.6c0,0,0-0.7-0.7-0.7h-8.9c0,0-0.4,0-0.4,0.3v1.6c0,0,0,0.7,0.7,0.7h2.1c0,0,0.7,0,0.7,0.7V54.5z
		 M50,54.9c0,0,0.1,0.3,0.5,0.3h1.6c0,0,0.7,0,0.9-0.7L57.3,42c0,0,0.2-0.7-0.5-0.7h-1.7c0,0-0.7,0-0.9,0.7l-2.5,8.2
		c0,0-0.2,0.7-0.4,0L48.7,42c0,0-0.2-0.7-0.9-0.7h-1.7c0,0-0.7,0-0.5,0.7L50,54.9z M59.6,54.5c0,0,0,0.7,0.7,0.7h1.5
		c0,0,0.7,0,0.7-0.7V42.1c0,0,0-0.7-0.7-0.7h-1.5c0,0-0.7,0-0.7,0.7V54.5z M70.5,55.4c2.7,0,4.7-1.6,4.7-4.1l0,0
		c0-2.1-1.3-3.2-3.8-4.1c-2.2-0.9-2.7-1.3-2.7-2.1l0,0c0-0.7,0.6-1.2,1.6-1.2c1.1,0,2.1,0.6,3,1.3l1.6-2.2c-1.3-1.1-2.9-1.7-4.5-1.7
		c-2.7,0-4.6,1.6-4.6,4l0,0c0,2.4,1.5,3.3,4,4.2c2,0.7,2.4,1.2,2.4,1.9l0,0c0,0.8-0.7,1.4-1.8,1.4c-1.4,0-2.5-0.7-3.5-1.6l-1.3,1.6
		c0,0-0.4,0.5,0.1,1C66.9,54.7,68.8,55.4,70.5,55.4 M78.6,54.5c0,0,0,0.7,0.7,0.7h1.5c0,0,0.7,0,0.7-0.7V42.1c0,0,0-0.7-0.7-0.7
		h-1.5c0,0-0.7,0-0.7,0.7V54.5z M91,55.4c3.7,0,6.3-2.9,6.3-7v-0.2c0-4.1-2.6-7-6.3-7c-3.7,0-6.3,2.9-6.3,7v0.2
		C84.7,52.5,87.3,55.4,91,55.4 M91.1,52.8c-1.9,0-3.4-1.7-3.4-4.4v-0.1c0-2.7,1.4-4.4,3.3-4.4s3.3,1.7,3.3,4.4v0.1
		C94.4,51.1,93,52.8,91.1,52.8 M100.7,54.5c0,0,0,0.7,0.7,0.7h1.4c0,0,0.7,0,0.7-0.7v-7c0,0,0-0.7,0.4-0.1l5,7.5
		c0,0,0.2,0.3,0.5,0.3h1.4c0,0,0.7,0,0.7-0.7V42.1c0,0,0-0.7-0.7-0.7h-1.4c0,0-0.7,0-0.7,0.7v6.7c0,0,0,0.7-0.4,0.1l-4.8-7.2
		c0,0-0.2-0.3-0.5-0.3h-1.6c0,0-0.7,0-0.7,0.7V54.5z"/>
	<path class="st0" d="M129.6,12.8L117.7,1c-0.6-0.6-1.7-1-2.5-1h-2c-0.8,0-1.5,0.6-1.5,1.4v7.8c0,0.8,0.5,1.8,1,2.4l1.3,1.3
		c0.6,0.6,0.6,1.5,0,2l-1.3,1.3c-0.6,0.6-1,1.6-1,2.4v7.7c0,0.8,0.7,1.4,1.5,1.4h2.2c0.8,0,1.9-0.5,2.5-1l11.8-11.6
		C130.1,14.5,130.2,13.3,129.6,12.8"/>
</g>
</svg>
